Animal-Regular.ufo
<glyph name="exclam" format="2">
	<advance width="230"/>
	<unicode hex="0021"/>
	<outline>
		<contour>
			<point x="115" y="177" type="curve" smooth="yes"/>
			<point x="135" y="177"/>
			<point x="155" y="195"/>
			<point x="156" y="223" type="curve" smooth="yes"/>
			<point x="171" y="681" type="line" smooth="yes"/>
			<point x="173" y="720"/>
			<point x="145" y="739"/>
			<point x="115" y="739" type="curve" smooth="yes"/>
			<point x="86" y="739"/>
			<point x="57" y="720"/>
			<point x="59" y="681" type="curve" smooth="yes"/>
			<point x="74" y="223" type="line" smooth="yes"/>
			<point x="75" y="195"/>
			<point x="95" y="177"/>
		</contour>
		<component base="period" xOffset="13" yOffset="-1"/>
	</outline>
</glyph>
<glyph name="dollar" format="2">
	<advance width="600"/>
	<unicode hex="0024"/>
	<outline>
		<contour>
			<point x="313" y="542" type="curve" smooth="yes"/>
			<point x="382" y="542"/>
			<point x="425" y="505"/>
			<point x="425" y="451" type="curve"/>
			<point x="437" y="501" type="line"/>
			<point x="409" y="501"/>
			<point x="390" y="483"/>
			<point x="390" y="457" type="curve" smooth="yes"/>
			<point x="390" y="429"/>
			<point x="410" y="410"/>
			<point x="440" y="410" type="curve" smooth="yes"/>
			<point x="469" y="410"/>
			<point x="489" y="431"/>
			<point x="489" y="463" type="curve" smooth="yes"/>
			<point x="489" y="556"/>
			<point x="418" y="617"/>
			<point x="309" y="617" type="curve" smooth="yes"/>
			<point x="197" y="617"/>
			<point x="122" y="551"/>
			<point x="122" y="451" type="curve" smooth="yes"/>
			<point x="122" y="249"/>
			<point x="407" y="276"/>
			<point x="407" y="154" type="curve" smooth="yes"/>
			<point x="407" y="101"/>
			<point x="364" y="66"/>
			<point x="299" y="66" type="curve" smooth="yes"/>
			<point x="227" y="66"/>
			<point x="190" y="106"/>
			<point x="159" y="123" type="curve" smooth="yes"/>
			<point x="118" y="152"/>
			<point x="83" y="118"/>
			<point x="110" y="74" type="curve" smooth="yes"/>
			<point x="132" y="28"/>
			<point x="205" y="-10"/>
			<point x="304" y="-10" type="curve" smooth="yes"/>
			<point x="422" y="-10"/>
			<point x="500" y="58"/>
			<point x="500" y="161" type="curve" smooth="yes"/>
			<point x="500" y="345"/>
			<point x="212" y="311"/>
			<point x="212" y="458" type="curve" smooth="yes"/>
			<point x="212" y="507"/>
			<point x="252" y="542"/>
		</contour>
		<contour>
			<point x="267" y="292" type="line"/>
			<point x="267" y="-51" type="line" smooth="yes"/>
			<point x="267" y="-81"/>
			<point x="284" y="-100"/>
			<point x="308" y="-100" type="curve" smooth="yes"/>
			<point x="333" y="-100"/>
			<point x="349" y="-81"/>
			<point x="349" y="-51" type="curve" smooth="yes"/>
			<point x="349" y="280" type="line"/>
		</contour>
		<contour>
			<point x="348" y="305" type="line"/>
			<point x="348" y="666" type="line" smooth="yes"/>
			<point x="348" y="696"/>
			<point x="331" y="715"/>
			<point x="307" y="715" type="curve" smooth="yes"/>
			<point x="283" y="715"/>
			<point x="266" y="696"/>
			<point x="266" y="666" type="curve" smooth="yes"/>
			<point x="266" y="307" type="line"/>
		</contour>
	</outline>
</glyph>
<glyph name="zero" format="2">
	<advance width="610"/>
	<unicode hex="0030"/>
	<outline>
		<contour>
			<point x="305" y="-10" type="curve" smooth="yes"/>
			<point x="441" y="-10"/>
			<point x="532" y="134"/>
			<point x="532" y="351" type="curve" smooth="yes"/>
			<point x="532" y="566"/>
			<point x="441" y="710"/>
			<point x="305" y="710" type="curve" smooth="yes"/>
			<point x="169" y="710"/>
			<point x="78" y="566"/>
			<point x="78" y="351" type="curve" smooth="yes"/>
			<point x="78" y="134"/>
			<point x="169" y="-10"/>
		</contour>
		<contour>
			<point x="305" y="69" type="curve" smooth="yes"/>
			<point x="225" y="69"/>
			<point x="172" y="181"/>
			<point x="172" y="351" type="curve" smooth="yes"/>
			<point x="172" y="519"/>
			<point x="225" y="631"/>
			<point x="305" y="631" type="curve" smooth="yes"/>
			<point x="385" y="631"/>
			<point x="438" y="519"/>
			<point x="438" y="351" type="curve" smooth="yes"/>
			<point x="438" y="181"/>
			<point x="385" y="69"/>
		</contour>
	</outline>
</glyph>
<glyph name="two" format="2">
	<advance width="451"/>
	<unicode hex="0032"/>
	<outline>
		<contour>
			<point x="71" y="0" type="curve" smooth="yes"/>
			<point x="376" y="0" type="line" smooth="yes"/>
			<point x="405" y="0"/>
			<point x="426" y="15"/>
			<point x="426" y="36" type="curve" smooth="yes"/>
			<point x="426" y="59"/>
			<point x="405" y="74"/>
			<point x="375" y="74" type="curve" smooth="yes"/>
			<point x="73" y="74" type="line"/>
			<point x="115" y="33" type="line"/>
			<point x="222" y="200"/>
			<point x="421" y="346"/>
			<point x="421" y="527" type="curve" smooth="yes"/>
			<point x="421" y="637"/>
			<point x="338" y="710"/>
			<point x="229" y="710" type="curve" smooth="yes"/>
			<point x="128" y="710"/>
			<point x="46" y="654"/>
			<point x="46" y="568" type="curve" smooth="yes"/>
			<point x="46" y="529"/>
			<point x="70" y="502"/>
			<point x="105" y="502" type="curve" smooth="yes"/>
			<point x="140" y="502"/>
			<point x="163" y="524"/>
			<point x="163" y="557" type="curve"/>
			<point x="163" y="585"/>
			<point x="142" y="603"/>
			<point x="111" y="603" type="curve"/>
			<point x="127" y="563" type="line"/>
			<point x="127" y="604"/>
			<point x="162" y="631"/>
			<point x="211" y="631" type="curve" smooth="yes"/>
			<point x="267" y="631"/>
			<point x="331" y="586"/>
			<point x="331" y="518" type="curve" smooth="yes"/>
			<point x="331" y="376"/>
			<point x="189" y="281"/>
			<point x="47" y="76" type="curve" smooth="yes"/>
			<point x="17" y="33"/>
			<point x="42" y="0"/>
		</contour>
	</outline>
</glyph>
<glyph name="three" format="2">
	<advance width="487"/>
	<unicode hex="0033"/>
	<outline>
		<contour>
			<point x="214" y="-10" type="curve" smooth="yes"/>
			<point x="351" y="-10"/>
			<point x="442" y="72"/>
			<point x="442" y="195" type="curve" smooth="yes"/>
			<point x="442" y="301"/>
			<point x="354" y="371"/>
			<point x="222" y="371" type="curve"/>
			<point x="222" y="353" type="line"/>
			<point x="331" y="353"/>
			<point x="412" y="424"/>
			<point x="412" y="527" type="curve" smooth="yes"/>
			<point x="412" y="637"/>
			<point x="328" y="710"/>
			<point x="216" y="710" type="curve" smooth="yes"/>
			<point x="110" y="710"/>
			<point x="38" y="645"/>
			<point x="38" y="547" type="curve" smooth="yes"/>
			<point x="38" y="510"/>
			<point x="62" y="485"/>
			<point x="96" y="485" type="curve" smooth="yes"/>
			<point x="131" y="485"/>
			<point x="155" y="505"/>
			<point x="155" y="536" type="curve"/>
			<point x="155" y="564"/>
			<point x="134" y="582"/>
			<point x="103" y="582" type="curve"/>
			<point x="118" y="563" type="line"/>
			<point x="118" y="604"/>
			<point x="153" y="631"/>
			<point x="205" y="631" type="curve" smooth="yes"/>
			<point x="260" y="631"/>
			<point x="321" y="588"/>
			<point x="321" y="521" type="curve" smooth="yes"/>
			<point x="321" y="445"/>
			<point x="256" y="394"/>
			<point x="196" y="394" type="curve" smooth="yes"/>
			<point x="170" y="394"/>
			<point x="151" y="379"/>
			<point x="151" y="356" type="curve" smooth="yes"/>
			<point x="151" y="336"/>
			<point x="170" y="322"/>
			<point x="196" y="322" type="curve" smooth="yes"/>
			<point x="279" y="322"/>
			<point x="353" y="268"/>
			<point x="353" y="188" type="curve" smooth="yes"/>
			<point x="353" y="116"/>
			<point x="283" y="69"/>
			<point x="206" y="69" type="curve" smooth="yes"/>
			<point x="169" y="69"/>
			<point x="126" y="81"/>
			<point x="98" y="99" type="curve" smooth="yes"/>
			<point x="51" y="129"/>
			<point x="-4" y="80"/>
			<point x="48" y="40" type="curve" smooth="yes"/>
			<point x="87" y="10"/>
			<point x="153" y="-10"/>
		</contour>
	</outline>
</glyph>
<glyph name="four" format="2">
	<advance width="565"/>
	<unicode hex="0034"/>
	<outline>
		<contour>
			<point x="133" y="176" type="curve" smooth="yes"/>
			<point x="485" y="176" type="line" smooth="yes"/>
			<point x="513" y="176"/>
			<point x="532" y="190"/>
			<point x="532" y="215" type="curve" smooth="yes"/>
			<point x="532" y="240"/>
			<point x="513" y="254"/>
			<point x="485" y="254" type="curve" smooth="yes"/>
			<point x="178" y="254" type="line"/>
			<point x="188" y="241" type="line"/>
			<point x="182" y="314" type="line"/>
			<point x="178" y="240" type="line"/>
			<point x="292" y="639" type="line" smooth="yes"/>
			<point x="305" y="685"/>
			<point x="281" y="709"/>
			<point x="255" y="709" type="curve" smooth="yes"/>
			<point x="235" y="709"/>
			<point x="214" y="697"/>
			<point x="207" y="672" type="curve" smooth="yes"/>
			<point x="80" y="248" type="line" smooth="yes"/>
			<point x="67" y="202"/>
			<point x="81" y="176"/>
		</contour>
		<contour>
			<point x="405" y="-10" type="curve" smooth="yes"/>
			<point x="434" y="-10"/>
			<point x="453" y="13"/>
			<point x="453" y="47" type="curve" smooth="yes"/>
			<point x="453" y="453" type="line" smooth="yes"/>
			<point x="453" y="487"/>
			<point x="434" y="510"/>
			<point x="406" y="510" type="curve" smooth="yes"/>
			<point x="378" y="510"/>
			<point x="359" y="487"/>
			<point x="359" y="453" type="curve" smooth="yes"/>
			<point x="359" y="47" type="line" smooth="yes"/>
			<point x="359" y="13"/>
			<point x="378" y="-10"/>
		</contour>
	</outline>
</glyph>
<glyph name="eight" format="2">
	<advance width="532"/>
	<unicode hex="0038"/>
	<outline>
		<contour>
			<point x="276" y="-10" type="curve"/>
			<point x="276" y="-10" type="line"/>
			<point x="398" y="-10"/>
			<point x="480" y="73"/>
			<point x="480" y="196" type="curve"/>
			<point x="480" y="313"/>
			<point x="398" y="393"/>
			<point x="276" y="393" type="curve"/>
			<point x="151" y="393"/>
			<point x="68" y="313"/>
			<point x="68" y="196" type="curve"/>
			<point x="68" y="73"/>
			<point x="151" y="-10"/>
		</contour>
		<contour>
			<point x="276" y="64" type="curve"/>
			<point x="276" y="64" type="line"/>
			<point x="206" y="64"/>
			<point x="160" y="117"/>
			<point x="160" y="196" type="curve"/>
			<point x="160" y="285"/>
			<point x="206" y="340"/>
			<point x="276" y="340" type="curve"/>
			<point x="343" y="340"/>
			<point x="388" y="285"/>
			<point x="388" y="196" type="curve"/>
			<point x="388" y="117"/>
			<point x="343" y="64"/>
		</contour>
		<contour>
			<point x="276" y="402" type="curve" smooth="yes"/>
			<point x="218" y="402"/>
			<point x="181" y="451"/>
			<point x="181" y="528" type="curve" smooth="yes"/>
			<point x="181" y="592"/>
			<point x="218" y="636"/>
			<point x="276" y="636" type="curve" smooth="yes"/>
			<point x="330" y="636"/>
			<point x="367" y="592"/>
			<point x="367" y="528" type="curve" smooth="yes"/>
			<point x="367" y="451"/>
			<point x="330" y="402"/>
		</contour>
		<contour>
			<point x="276" y="351" type="curve"/>
			<point x="276" y="351" type="line"/>
			<point x="385" y="351"/>
			<point x="459" y="424"/>
			<point x="459" y="528" type="curve"/>
			<point x="459" y="636"/>
			<point x="385" y="709"/>
			<point x="276" y="709" type="curve"/>
			<point x="164" y="709"/>
			<point x="89" y="636"/>
			<point x="89" y="528" type="curve"/>
			<point x="89" y="424"/>
			<point x="164" y="351"/>
		</contour>
	</outline>
</glyph>
<glyph name="nine" format="2">
	<advance width="600"/>
	<unicode hex="0039"/>
	<outline>
		<contour>
			<point x="220" y="0" type="curve" smooth="yes"/>
			<point x="401" y="0"/>
			<point x="500" y="175"/>
			<point x="500" y="437" type="curve" smooth="yes"/>
			<point x="500" y="603"/>
			<point x="416" y="713"/>
			<point x="290" y="713" type="curve" smooth="yes"/>
			<point x="170" y="713"/>
			<point x="90" y="625"/>
			<point x="90" y="491" type="curve" smooth="yes"/>
			<point x="90" y="366"/>
			<point x="156" y="282"/>
			<point x="254" y="282" type="curve" smooth="yes"/>
			<point x="321" y="282"/>
			<point x="374" y="313"/>
			<point x="402" y="365" type="curve"/>
			<point x="405" y="363" type="line"/>
			<point x="390" y="185"/>
			<point x="317" y="87"/>
			<point x="213" y="87" type="curve" smooth="yes"/>
			<point x="135" y="87"/>
			<point x="135" y="0"/>
		</contour>
		<contour>
			<point x="296" y="354" type="curve" smooth="yes"/>
			<point x="227" y="354"/>
			<point x="182" y="412"/>
			<point x="182" y="497" type="curve" smooth="yes"/>
			<point x="182" y="583"/>
			<point x="227" y="640"/>
			<point x="295" y="640" type="curve" smooth="yes"/>
			<point x="362" y="640"/>
			<point x="408" y="564"/>
			<point x="408" y="441" type="curve" smooth="yes"/>
			<point x="408" y="389"/>
			<point x="359" y="354"/>
		</contour>
	</outline>
</glyph>
<glyph name="B" format="2">
	<advance width="580"/>
	<unicode hex="0042"/>
	<outline>
		<contour>
			<point x="305" y="-10" type="curve" smooth="yes"/>
			<point x="432" y="-10"/>
			<point x="517" y="62"/>
			<point x="517" y="176" type="curve" smooth="yes"/>
			<point x="517" y="275"/>
			<point x="453" y="350"/>
			<point x="361" y="369" type="curve"/>
			<point x="360" y="341" type="line"/>
			<point x="444" y="367"/>
			<point x="488" y="446"/>
			<point x="488" y="525" type="curve" smooth="yes"/>
			<point x="488" y="638"/>
			<point x="396" y="710"/>
			<point x="265" y="710" type="curve" smooth="yes"/>
			<point x="144" y="710"/>
			<point x="83" y="681"/>
			<point x="83" y="629" type="curve" smooth="yes"/>
			<point x="83" y="54" type="line" smooth="yes"/>
			<point x="83" y="25"/>
			<point x="103" y="2"/>
			<point x="131" y="-1" type="curve" smooth="yes"/>
			<point x="182" y="-6"/>
			<point x="249" y="-10"/>
		</contour>
		<contour>
			<point x="305" y="69" type="curve" smooth="yes"/>
			<point x="264" y="69"/>
			<point x="218" y="71"/>
			<point x="177" y="76" type="curve"/>
			<point x="178" y="620" type="line"/>
			<point x="200" y="625"/>
			<point x="229" y="629"/>
			<point x="260" y="629" type="curve" smooth="yes"/>
			<point x="353" y="629"/>
			<point x="397" y="576"/>
			<point x="397" y="511" type="curve" smooth="yes"/>
			<point x="397" y="445"/>
			<point x="359" y="394"/>
			<point x="285" y="386" type="curve" smooth="yes"/>
			<point x="258" y="381"/>
			<point x="249" y="370"/>
			<point x="249" y="350" type="curve" smooth="yes"/>
			<point x="249" y="325"/>
			<point x="263" y="317"/>
			<point x="286" y="317" type="curve" smooth="yes"/>
			<point x="375" y="317"/>
			<point x="423" y="264"/>
			<point x="423" y="187" type="curve" smooth="yes"/>
			<point x="423" y="111"/>
			<point x="376" y="69"/>
		</contour>
	</outline>
</glyph>
<glyph name="C" format="2">
	<advance width="537"/>
	<unicode hex="0043"/>
	<outline>
		<contour>
			<point x="320" y="-10" type="curve" smooth="yes"/>
			<point x="438" y="-10"/>
			<point x="506" y="57"/>
			<point x="514" y="145" type="curve" smooth="yes"/>
			<point x="517" y="175"/>
			<point x="503" y="197"/>
			<point x="481" y="199" type="curve" smooth="yes"/>
			<point x="453" y="202"/>
			<point x="437" y="184"/>
			<point x="430" y="155" type="curve" smooth="yes"/>
			<point x="423" y="108"/>
			<point x="388" y="74"/>
			<point x="321" y="74" type="curve" smooth="yes"/>
			<point x="205" y="74"/>
			<point x="172" y="181"/>
			<point x="172" y="350" type="curve" smooth="yes"/>
			<point x="172" y="570"/>
			<point x="229" y="631"/>
			<point x="320" y="631" type="curve" smooth="yes"/>
			<point x="394" y="631"/>
			<point x="425" y="590"/>
			<point x="439" y="548" type="curve"/>
			<point x="438" y="590" type="line"/>
			<point x="421" y="576"/>
			<point x="410" y="551"/>
			<point x="410" y="524" type="curve" smooth="yes"/>
			<point x="410" y="483"/>
			<point x="434" y="461"/>
			<point x="460" y="461" type="curve" smooth="yes"/>
			<point x="485" y="461"/>
			<point x="508" y="484"/>
			<point x="508" y="526" type="curve" smooth="yes"/>
			<point x="508" y="646"/>
			<point x="438" y="710"/>
			<point x="320" y="710" type="curve" smooth="yes"/>
			<point x="129" y="710"/>
			<point x="78" y="566"/>
			<point x="78" y="350" type="curve" smooth="yes"/>
			<point x="78" y="68"/>
			<point x="172" y="-10"/>
		</contour>
	</outline>
</glyph>
<glyph name="D" format="2">
	<advance width="605"/>
	<unicode hex="0044"/>
	<outline>
		<contour>
			<point x="264" y="-5" type="curve" smooth="yes"/>
			<point x="447" y="-5"/>
			<point x="527" y="140"/>
			<point x="527" y="350" type="curve" smooth="yes"/>
			<point x="527" y="584"/>
			<point x="453" y="710"/>
			<point x="269" y="710" type="curve" smooth="yes"/>
			<point x="152" y="710"/>
			<point x="83" y="687"/>
			<point x="83" y="640" type="curve" smooth="yes"/>
			<point x="83" y="74" type="line" smooth="yes"/>
			<point x="83" y="15"/>
			<point x="174" y="-5"/>
		</contour>
		<contour>
			<point x="274" y="79" type="curve" smooth="yes"/>
			<point x="241" y="79"/>
			<point x="203" y="85"/>
			<point x="177" y="92" type="curve"/>
			<point x="177" y="620" type="line"/>
			<point x="205" y="627"/>
			<point x="238" y="630"/>
			<point x="272" y="630" type="curve" smooth="yes"/>
			<point x="400" y="630"/>
			<point x="433" y="534"/>
			<point x="433" y="350" type="curve" smooth="yes"/>
			<point x="433" y="159"/>
			<point x="389" y="79"/>
		</contour>
	</outline>
</glyph>
<glyph name="L" format="2">
	<advance width="442"/>
	<unicode hex="004C"/>
	<outline>
		<contour>
			<point x="130" y="0" type="curve" smooth="yes"/>
			<point x="375" y="0" type="line" smooth="yes"/>
			<point x="403" y="0"/>
			<point x="422" y="17"/>
			<point x="422" y="42" type="curve" smooth="yes"/>
			<point x="422" y="67"/>
			<point x="403" y="84"/>
			<point x="376" y="84" type="curve" smooth="yes"/>
			<point x="131" y="84" type="line"/>
			<point x="177" y="52" type="line"/>
			<point x="177" y="653" type="line" smooth="yes"/>
			<point x="177" y="687"/>
			<point x="158" y="710"/>
			<point x="129" y="710" type="curve" smooth="yes"/>
			<point x="102" y="710"/>
			<point x="83" y="687"/>
			<point x="83" y="653" type="curve" smooth="yes"/>
			<point x="83" y="51" type="line" smooth="yes"/>
			<point x="83" y="20"/>
			<point x="102" y="0"/>
		</contour>
	</outline>
</glyph>
<glyph name="M" format="2">
	<advance width="786"/>
	<unicode hex="004D"/>
	<outline>
		<contour>
			<point x="78" y="46" type="line" smooth="yes"/>
			<point x="76" y="9"/>
			<point x="94" y="-10"/>
			<point x="117" y="-10" type="curve" smooth="yes"/>
			<point x="138" y="-10"/>
			<point x="161" y="8"/>
			<point x="163" y="40" type="curve" smooth="yes"/>
			<point x="197" y="635" type="line"/>
			<point x="205" y="635" type="line"/>
			<point x="318" y="199" type="line" smooth="yes"/>
			<point x="327" y="157"/>
			<point x="357" y="136"/>
			<point x="386" y="136" type="curve" smooth="yes"/>
			<point x="416" y="136"/>
			<point x="445" y="158"/>
			<point x="455" y="199" type="curve" smooth="yes"/>
			<point x="565" y="635" type="line"/>
			<point x="574" y="635" type="line"/>
			<point x="618" y="40" type="line" smooth="yes"/>
			<point x="620" y="7"/>
			<point x="643" y="-10"/>
			<point x="666" y="-10" type="curve" smooth="yes"/>
			<point x="689" y="-10"/>
			<point x="710" y="8"/>
			<point x="707" y="46" type="curve" smooth="yes"/>
			<point x="658" y="630" type="line" smooth="yes"/>
			<point x="654" y="683"/>
			<point x="614" y="710"/>
			<point x="571" y="710" type="curve" smooth="yes"/>
			<point x="528" y="710"/>
			<point x="490" y="683"/>
			<point x="481" y="630" type="curve" smooth="yes"/>
			<point x="394" y="226" type="line"/>
			<point x="384" y="226" type="line"/>
			<point x="286" y="630" type="line" smooth="yes"/>
			<point x="275" y="684"/>
			<point x="237" y="709"/>
			<point x="196" y="709" type="curve" smooth="yes"/>
			<point x="155" y="709"/>
			<point x="118" y="682"/>
			<point x="116" y="630" type="curve" smooth="yes"/>
		</contour>
	</outline>
</glyph>
<glyph name="Q" format="2">
	<advance width="612"/>
	<unicode hex="0051"/>
	<outline>
		<contour>
			<point x="457" y="-164" type="curve" smooth="yes"/>
			<point x="502" y="-164"/>
			<point x="534" y="-138"/>
			<point x="534" y="-101" type="curve" smooth="yes"/>
			<point x="534" y="-23"/>
			<point x="426" y="-99"/>
			<point x="342" y="-11" type="curve"/>
			<point x="342" y="-4" type="line"/>
			<point x="477" y="31"/>
			<point x="523" y="183"/>
			<point x="523" y="351" type="curve" smooth="yes"/>
			<point x="523" y="586"/>
			<point x="488" y="710"/>
			<point x="301" y="710" type="curve" smooth="yes"/>
			<point x="113" y="710"/>
			<point x="78" y="577"/>
			<point x="78" y="351" type="curve" smooth="yes"/>
			<point x="78" y="135"/>
			<point x="140" y="-9"/>
			<point x="266" y="-9" type="curve"/>
			<point x="304" y="-103"/>
			<point x="374" y="-164"/>
		</contour>
		<contour>
			<point x="303" y="67" type="curve" smooth="yes"/>
			<point x="211" y="68"/>
			<point x="173" y="151"/>
			<point x="173" y="351" type="curve" smooth="yes"/>
			<point x="173" y="554"/>
			<point x="208" y="632"/>
			<point x="301" y="632" type="curve" smooth="yes"/>
			<point x="396" y="632"/>
			<point x="428" y="556"/>
			<point x="428" y="351" type="curve" smooth="yes"/>
			<point x="428" y="164"/>
			<point x="393" y="68"/>
		</contour>
	</outline>
</glyph>
<glyph name="S" format="2">
	<advance width="528"/>
	<unicode hex="0053"/>
	<outline>
		<contour>
			<point x="263" y="-9" type="curve" smooth="yes"/>
			<point x="391" y="-9"/>
			<point x="479" y="68"/>
			<point x="479" y="178" type="curve" smooth="yes"/>
			<point x="479" y="397"/>
			<point x="164" y="346"/>
			<point x="164" y="515" type="curve" smooth="yes"/>
			<point x="164" y="581"/>
			<point x="214" y="631"/>
			<point x="282" y="631" type="curve" smooth="yes"/>
			<point x="342" y="631"/>
			<point x="399" y="602"/>
			<point x="399" y="546" type="curve"/>
			<point x="403" y="587" type="line"/>
			<point x="373" y="587"/>
			<point x="355" y="564"/>
			<point x="355" y="536" type="curve" smooth="yes"/>
			<point x="355" y="509"/>
			<point x="375" y="485"/>
			<point x="410" y="485" type="curve" smooth="yes"/>
			<point x="441" y="485"/>
			<point x="467" y="509"/>
			<point x="467" y="552" type="curve" smooth="yes"/>
			<point x="467" y="648"/>
			<point x="390" y="710"/>
			<point x="277" y="710" type="curve" smooth="yes"/>
			<point x="144" y="710"/>
			<point x="69" y="618"/>
			<point x="69" y="512" type="curve" smooth="yes"/>
			<point x="69" y="277"/>
			<point x="382" y="318"/>
			<point x="382" y="172" type="curve" smooth="yes"/>
			<point x="382" y="109"/>
			<point x="332" y="70"/>
			<point x="266" y="70" type="curve" smooth="yes"/>
			<point x="176" y="70"/>
			<point x="144" y="128"/>
			<point x="99" y="142" type="curve" smooth="yes"/>
			<point x="68" y="154"/>
			<point x="44" y="124"/>
			<point x="60" y="94" type="curve" smooth="yes"/>
			<point x="79" y="33"/>
			<point x="175" y="-9"/>
		</contour>
	</outline>
</glyph>
<glyph name="V" format="2">
	<advance width="608"/>
	<unicode hex="0056"/>
	<outline>
		<contour>
			<point x="305" y="-10" type="curve" smooth="yes"/>
			<point x="355" y="-10"/>
			<point x="390" y="23"/>
			<point x="403" y="75" type="curve" smooth="yes"/>
			<point x="551" y="644" type="line"/>
			<point x="560" y="681"/>
			<point x="547" y="710"/>
			<point x="515" y="710" type="curve" smooth="yes"/>
			<point x="492" y="710"/>
			<point x="469" y="694"/>
			<point x="461" y="661" type="curve" smooth="yes"/>
			<point x="307" y="51" type="line"/>
			<point x="329" y="68" type="line"/>
			<point x="286" y="68" type="line"/>
			<point x="309" y="52" type="line"/>
			<point x="153" y="661" type="line" smooth="yes"/>
			<point x="145" y="693"/>
			<point x="121" y="709"/>
			<point x="99" y="709" type="curve" smooth="yes"/>
			<point x="67" y="709"/>
			<point x="47" y="679"/>
			<point x="56" y="644" type="curve" smooth="yes"/>
			<point x="205" y="75" type="line" smooth="yes"/>
			<point x="218" y="23"/>
			<point x="255" y="-10"/>
		</contour>
	</outline>
</glyph>
<glyph name="W" format="2">
	<advance width="724"/>
	<unicode hex="0057"/>
	<outline>
		<contour>
			<point x="196" y="-10" type="curve" smooth="yes"/>
			<point x="237" y="-10"/>
			<point x="272" y="17"/>
			<point x="279" y="70" type="curve" smooth="yes"/>
			<point x="353" y="556" type="line"/>
			<point x="323" y="548" type="line"/>
			<point x="403" y="548" type="line"/>
			<point x="362" y="556" type="line"/>
			<point x="436" y="70" type="line" smooth="yes"/>
			<point x="443" y="18"/>
			<point x="478" y="-10"/>
			<point x="519" y="-10" type="curve" smooth="yes"/>
			<point x="559" y="-10"/>
			<point x="595" y="18"/>
			<point x="602" y="70" type="curve" smooth="yes"/>
			<point x="685" y="655" type="line" smooth="yes"/>
			<point x="689" y="689"/>
			<point x="673" y="709"/>
			<point x="649" y="709" type="curve" smooth="yes"/>
			<point x="628" y="709"/>
			<point x="609" y="693"/>
			<point x="605" y="661" type="curve" smooth="yes"/>
			<point x="523" y="49" type="line"/>
			<point x="546" y="69" type="line"/>
			<point x="498" y="69" type="line"/>
			<point x="517" y="48" type="line"/>
			<point x="428" y="577" type="line" smooth="yes"/>
			<point x="423" y="610"/>
			<point x="397" y="632"/>
			<point x="359" y="632" type="curve" smooth="yes"/>
			<point x="322" y="632"/>
			<point x="296" y="610"/>
			<point x="291" y="577" type="curve" smooth="yes"/>
			<point x="204" y="62" type="line"/>
			<point x="215" y="70" type="line"/>
			<point x="175" y="70" type="line"/>
			<point x="197" y="55" type="line"/>
			<point x="121" y="660" type="line" smooth="yes"/>
			<point x="117" y="692"/>
			<point x="95" y="709"/>
			<point x="73" y="709" type="curve" smooth="yes"/>
			<point x="49" y="709"/>
			<point x="32" y="689"/>
			<point x="36" y="654" type="curve" smooth="yes"/>
			<point x="114" y="70" type="line" smooth="yes"/>
			<point x="121" y="19"/>
			<point x="156" y="-10"/>
		</contour>
	</outline>
</glyph>
<glyph name="a" format="2">
	<advance width="522"/>
	<unicode hex="0061"/>
	<anchor x="279" y="500" name="top"/>
	<outline>
		<contour>
			<point x="412" y="-11" type="curve" smooth="yes"/>
			<point x="438" y="-11"/>
			<point x="454" y="8"/>
			<point x="454" y="36" type="curve"/>
			<point x="454" y="334" type="line" smooth="yes"/>
			<point x="454" y="449"/>
			<point x="380" y="510"/>
			<point x="268" y="510" type="curve" smooth="yes"/>
			<point x="142" y="510"/>
			<point x="88" y="445"/>
			<point x="88" y="379" type="curve" smooth="yes"/>
			<point x="88" y="347"/>
			<point x="106" y="329"/>
			<point x="133" y="329" type="curve" smooth="yes"/>
			<point x="160" y="329"/>
			<point x="177" y="346"/>
			<point x="177" y="372" type="curve" smooth="yes"/>
			<point x="177" y="396"/>
			<point x="155" y="415"/>
			<point x="131" y="415" type="curve"/>
			<point x="132" y="367" type="line"/>
			<point x="148" y="415"/>
			<point x="195" y="444"/>
			<point x="252" y="444" type="curve" smooth="yes"/>
			<point x="330" y="444"/>
			<point x="370" y="399"/>
			<point x="370" y="326" type="curve" smooth="yes"/>
			<point x="370" y="168" type="line" smooth="yes"/>
			<point x="370" y="103"/>
			<point x="328" y="60"/>
			<point x="260" y="60" type="curve" smooth="yes"/>
			<point x="189" y="60"/>
			<point x="155" y="92"/>
			<point x="155" y="140" type="curve" smooth="yes"/>
			<point x="155" y="206"/>
			<point x="208" y="226"/>
			<point x="279" y="226" type="curve" smooth="yes"/>
			<point x="310" y="226"/>
			<point x="344" y="221"/>
			<point x="378" y="211" type="curve"/>
			<point x="382" y="267" type="line"/>
			<point x="341" y="278"/>
			<point x="300" y="283"/>
			<point x="261" y="283" type="curve" smooth="yes"/>
			<point x="157" y="283"/>
			<point x="68" y="242"/>
			<point x="68" y="135" type="curve" smooth="yes"/>
			<point x="68" y="46"/>
			<point x="119" y="-10"/>
			<point x="225" y="-10" type="curve" smooth="yes"/>
			<point x="293" y="-10"/>
			<point x="342" y="19"/>
			<point x="368" y="72" type="curve"/>
			<point x="370" y="72" type="line"/>
			<point x="370" y="36" type="line" smooth="yes"/>
			<point x="370" y="7"/>
			<point x="386" y="-11"/>
		</contour>
	</outline>
</glyph>
<glyph name="b" format="2">
	<advance width="526"/>
	<unicode hex="0062"/>
	<outline>
		<contour>
			<point x="240" y="-10" type="curve" smooth="yes"/>
			<point x="373" y="-10"/>
			<point x="461" y="102"/>
			<point x="461" y="262" type="curve" smooth="yes"/>
			<point x="461" y="407"/>
			<point x="401" y="510"/>
			<point x="290" y="510" type="curve" smooth="yes"/>
			<point x="231" y="510"/>
			<point x="182" y="480"/>
			<point x="162" y="425" type="curve"/>
			<point x="158" y="425" type="line"/>
			<point x="158" y="713" type="line" smooth="yes"/>
			<point x="158" y="739"/>
			<point x="141" y="760"/>
			<point x="115" y="760" type="curve" smooth="yes"/>
			<point x="89" y="760"/>
			<point x="72" y="739"/>
			<point x="72" y="713" type="curve" smooth="yes"/>
			<point x="72" y="74" type="line" smooth="yes"/>
			<point x="72" y="57"/>
			<point x="79" y="41"/>
			<point x="95" y="32" type="curve" smooth="yes"/>
			<point x="136" y="7"/>
			<point x="189" y="-10"/>
		</contour>
		<contour>
			<point x="244" y="63" type="curve" smooth="yes"/>
			<point x="215" y="63"/>
			<point x="184" y="71"/>
			<point x="158" y="89" type="curve"/>
			<point x="158" y="329" type="line" smooth="yes"/>
			<point x="158" y="392"/>
			<point x="196" y="437"/>
			<point x="259" y="437" type="curve" smooth="yes"/>
			<point x="338" y="437"/>
			<point x="372" y="365"/>
			<point x="372" y="255" type="curve" smooth="yes"/>
			<point x="372" y="143"/>
			<point x="321" y="63"/>
		</contour>
	</outline>
</glyph>
<glyph name="c" format="2">
	<advance width="485"/>
	<unicode hex="0063"/>
	<outline>
		<contour>
			<point x="275" y="-10" type="curve" smooth="yes"/>
			<point x="329" y="-10"/>
			<point x="379" y="7"/>
			<point x="410" y="34" type="curve" smooth="yes"/>
			<point x="460" y="80"/>
			<point x="418" y="135"/>
			<point x="365" y="95" type="curve" smooth="yes"/>
			<point x="344" y="79"/>
			<point x="319" y="63"/>
			<point x="270" y="63" type="curve" smooth="yes"/>
			<point x="191" y="63"/>
			<point x="157" y="138"/>
			<point x="157" y="250" type="curve" smooth="yes"/>
			<point x="157" y="381"/>
			<point x="204" y="437"/>
			<point x="275" y="437" type="curve" smooth="yes"/>
			<point x="327" y="437"/>
			<point x="362" y="415"/>
			<point x="362" y="372" type="curve"/>
			<point x="379" y="403" type="line"/>
			<point x="349" y="403"/>
			<point x="330" y="386"/>
			<point x="330" y="359" type="curve"/>
			<point x="330" y="330"/>
			<point x="351" y="311"/>
			<point x="382" y="311" type="curve" smooth="yes"/>
			<point x="411" y="311"/>
			<point x="431" y="336"/>
			<point x="431" y="372" type="curve" smooth="yes"/>
			<point x="431" y="455"/>
			<point x="368" y="510"/>
			<point x="275" y="510" type="curve" smooth="yes"/>
			<point x="131" y="510"/>
			<point x="68" y="406"/>
			<point x="68" y="250" type="curve" smooth="yes"/>
			<point x="68" y="69"/>
			<point x="151" y="-10"/>
		</contour>
	</outline>
</glyph>
<glyph name="n" format="2">
	<advance width="525"/>
	<unicode hex="006E"/>
	<anchor x="265" y="500" name="top"/>
	<outline>
		<contour>
			<point x="115" y="-10" type="curve" smooth="yes"/>
			<point x="140" y="-10"/>
			<point x="158" y="9"/>
			<point x="158" y="37" type="curve" smooth="yes"/>
			<point x="158" y="337" type="line" smooth="yes"/>
			<point x="158" y="399"/>
			<point x="199" y="440"/>
			<point x="261" y="440" type="curve" smooth="yes"/>
			<point x="326" y="440"/>
			<point x="369" y="397"/>
			<point x="369" y="333" type="curve" smooth="yes"/>
			<point x="369" y="37" type="line" smooth="yes"/>
			<point x="369" y="9"/>
			<point x="386" y="-10"/>
			<point x="413" y="-10" type="curve" smooth="yes"/>
			<point x="439" y="-10"/>
			<point x="457" y="9"/>
			<point x="457" y="37" type="curve" smooth="yes"/>
			<point x="457" y="337" type="line" smooth="yes"/>
			<point x="457" y="440"/>
			<point x="393" y="509"/>
			<point x="296" y="509" type="curve" smooth="yes"/>
			<point x="237" y="509"/>
			<point x="187" y="480"/>
			<point x="160" y="434" type="curve"/>
			<point x="158" y="434" type="line"/>
			<point x="158" y="463" type="line" smooth="yes"/>
			<point x="158" y="491"/>
			<point x="140" y="510"/>
			<point x="115" y="510" type="curve" smooth="yes"/>
			<point x="89" y="510"/>
			<point x="72" y="491"/>
			<point x="72" y="463" type="curve" smooth="yes"/>
			<point x="72" y="37" type="line" smooth="yes"/>
			<point x="72" y="9"/>
			<point x="89" y="-10"/>
		</contour>
	</outline>
</glyph>
<glyph name="x" format="2">
	<advance width="463"/>
	<unicode hex="0078"/>
	<outline>
		<contour>
			<point x="331" y="21" type="line" smooth="yes"/>
			<point x="347" y="-2"/>
			<point x="366" y="-12"/>
			<point x="382" y="-12" type="curve" smooth="yes"/>
			<point x="415" y="-12"/>
			<point x="438" y="23"/>
			<point x="409" y="66" type="curve" smooth="yes"/>
			<point x="134" y="481" type="line" smooth="yes"/>
			<point x="118" y="503"/>
			<point x="99" y="512"/>
			<point x="83" y="512" type="curve" smooth="yes"/>
			<point x="52" y="512"/>
			<point x="29" y="479"/>
			<point x="58" y="436" type="curve" smooth="yes"/>
		</contour>
		<contour>
			<point x="30" y="51" type="line" smooth="yes"/>
			<point x="9" y="20"/>
			<point x="38" y="-11"/>
			<point x="62" y="-11" type="curve" smooth="yes"/>
			<point x="74" y="-11"/>
			<point x="88" y="-5"/>
			<point x="99" y="10" type="curve" smooth="yes"/>
			<point x="278" y="271" type="line"/>
			<point x="183" y="277" type="line"/>
		</contour>
		<contour>
			<point x="178" y="240" type="line"/>
			<point x="269" y="234" type="line"/>
			<point x="415" y="449" type="line" smooth="yes"/>
			<point x="435" y="479"/>
			<point x="406" y="510"/>
			<point x="382" y="510" type="curve" smooth="yes"/>
			<point x="370" y="510"/>
			<point x="356" y="504"/>
			<point x="345" y="487" type="curve" smooth="yes"/>
		</contour>
	</outline>
</glyph>
<glyph name="y" format="2">
	<advance width="526"/>
	<unicode hex="0079"/>
	<outline>
		<contour>
			<point x="185" y="-210" type="curve" smooth="yes"/>
			<point x="275" y="-210"/>
			<point x="313" y="-151"/>
			<point x="373" y="61" type="curve"/>
			<point x="477" y="450" type="line"/>
			<point x="488" y="490"/>
			<point x="468" y="510"/>
			<point x="446" y="510" type="curve" smooth="yes"/>
			<point x="428" y="510"/>
			<point x="409" y="498"/>
			<point x="402" y="469" type="curve"/>
			<point x="291" y="66" type="line"/>
			<point x="236" y="-127"/>
			<point x="216" y="-141"/>
			<point x="183" y="-141" type="curve" smooth="yes"/>
			<point x="151" y="-141"/>
			<point x="124" y="-126"/>
			<point x="124" y="-102" type="curve"/>
			<point x="113" y="-147" type="line"/>
			<point x="144" y="-147"/>
			<point x="164" y="-128"/>
			<point x="164" y="-101" type="curve" smooth="yes"/>
			<point x="164" y="-70"/>
			<point x="144" y="-50"/>
			<point x="113" y="-50" type="curve" smooth="yes"/>
			<point x="82" y="-50"/>
			<point x="61" y="-70"/>
			<point x="61" y="-101" type="curve" smooth="yes"/>
			<point x="61" y="-167"/>
			<point x="114" y="-210"/>
		</contour>
		<contour>
			<point x="265" y="-8" type="curve" smooth="yes"/>
			<point x="308" y="-8"/>
			<point x="337" y="25"/>
			<point x="337" y="73" type="curve"/>
			<point x="308" y="71" type="line"/>
			<point x="251" y="71" type="line"/>
			<point x="269" y="62" type="line"/>
			<point x="154" y="461" type="line" smooth="yes"/>
			<point x="145" y="495"/>
			<point x="123" y="510"/>
			<point x="103" y="510" type="curve" smooth="yes"/>
			<point x="78" y="510"/>
			<point x="56" y="486"/>
			<point x="67" y="449" type="curve" smooth="yes"/>
			<point x="178" y="72" type="line" smooth="yes"/>
			<point x="191" y="24"/>
			<point x="228" y="-8"/>
		</contour>
	</outline>
</glyph>
<glyph name="Idieresis" format="2">
	<advance width="270"/>
	<unicode hex="00CF"/>
	<anchor x="136" y="700" name="_top"/>
	<outline>
		<contour>
			<point x="213" y="769" type="curve" smooth="yes"/>
			<point x="247" y="769"/>
			<point x="270" y="792"/>
			<point x="270" y="828" type="curve" smooth="yes"/>
			<point x="270" y="861"/>
			<point x="247" y="883"/>
			<point x="213" y="883" type="curve" smooth="yes"/>
			<point x="179" y="883"/>
			<point x="156" y="861"/>
			<point x="156" y="827" type="curve" smooth="yes"/>
			<point x="156" y="792"/>
			<point x="179" y="769"/>
		</contour>
		<contour>
			<point x="57" y="769" type="curve" smooth="yes"/>
			<point x="92" y="769"/>
			<point x="115" y="792"/>
			<point x="115" y="828" type="curve" smooth="yes"/>
			<point x="115" y="861"/>
			<point x="92" y="883"/>
			<point x="57" y="883" type="curve" smooth="yes"/>
			<point x="24" y="883"/>
			<point x="1" y="861"/>
			<point x="1" y="827" type="curve" smooth="yes"/>
			<point x="1" y="792"/>
			<point x="24" y="769"/>
		</contour>
		<component base="I"/>
	</outline>
</glyph>
<glyph name="ae" format="2">
	<advance width="795"/>
	<unicode hex="00E6"/>
	<anchor x="279" y="500" name="top"/>
	<outline>
		<contour>
			<point x="225" y="-10" type="curve" smooth="yes"/>
			<point x="291" y="-10"/>
			<point x="372" y="17"/>
			<point x="407" y="93" type="curve"/>
			<point x="409" y="93" type="line"/>
			<point x="434" y="28"/>
			<point x="506" y="-10"/>
			<point x="582" y="-10" type="curve" smooth="yes"/>
			<point x="646" y="-10"/>
			<point x="720" y="18"/>
			<point x="737" y="64" type="curve" smooth="yes"/>
			<point x="756" y="88"/>
			<point x="735" y="116"/>
			<point x="703" y="103" type="curve" smooth="yes"/>
			<point x="664" y="96"/>
			<point x="655" y="63"/>
			<point x="577" y="63" type="curve" smooth="yes"/>
			<point x="499" y="63"/>
			<point x="456" y="122"/>
			<point x="454" y="227" type="curve"/>
			<point x="703" y="227" type="line" smooth="yes"/>
			<point x="730" y="227"/>
			<point x="749" y="245"/>
			<point x="749" y="279" type="curve" smooth="yes"/>
			<point x="749" y="412"/>
			<point x="700" y="510"/>
			<point x="567" y="510" type="curve" smooth="yes"/>
			<point x="502" y="510"/>
			<point x="446" y="474"/>
			<point x="421" y="432" type="curve"/>
			<point x="419" y="432" type="line"/>
			<point x="393" y="475"/>
			<point x="334" y="510"/>
			<point x="268" y="510" type="curve" smooth="yes"/>
			<point x="142" y="510"/>
			<point x="88" y="445"/>
			<point x="88" y="379" type="curve" smooth="yes"/>
			<point x="88" y="347"/>
			<point x="106" y="329"/>
			<point x="133" y="329" type="curve" smooth="yes"/>
			<point x="160" y="329"/>
			<point x="177" y="346"/>
			<point x="177" y="372" type="curve" smooth="yes"/>
			<point x="177" y="385"/>
			<point x="171" y="396"/>
			<point x="161" y="403" type="curve"/>
			<point x="178" y="428"/>
			<point x="212" y="444"/>
			<point x="252" y="444" type="curve" smooth="yes"/>
			<point x="330" y="444"/>
			<point x="370" y="399"/>
			<point x="370" y="326" type="curve" smooth="yes"/>
			<point x="370" y="289" type="line"/>
			<point x="261" y="289" type="line" smooth="yes"/>
			<point x="157" y="289"/>
			<point x="68" y="242"/>
			<point x="68" y="135" type="curve" smooth="yes"/>
			<point x="68" y="46"/>
			<point x="119" y="-10"/>
		</contour>
		<contour>
			<point x="260" y="60" type="curve" smooth="yes"/>
			<point x="189" y="60"/>
			<point x="155" y="92"/>
			<point x="155" y="140" type="curve" smooth="yes"/>
			<point x="155" y="206"/>
			<point x="208" y="227"/>
			<point x="279" y="227" type="curve" smooth="yes"/>
			<point x="370" y="227" type="line"/>
			<point x="370" y="168" type="line" smooth="yes"/>
			<point x="370" y="103"/>
			<point x="328" y="60"/>
		</contour>
		<contour>
			<point x="455" y="289" type="line"/>
			<point x="461" y="395"/>
			<point x="510" y="437"/>
			<point x="568" y="437" type="curve" smooth="yes"/>
			<point x="624" y="437"/>
			<point x="657" y="398"/>
			<point x="668" y="324" type="curve" smooth="yes"/>
			<point x="670" y="313"/>
			<point x="670" y="301"/>
			<point x="671" y="289" type="curve"/>
		</contour>
	</outline>
</glyph>
<glyph name="OE" format="2">
	<advance width="724"/>
	<unicode hex="0152"/>
	<anchor x="490" y="700" name="top"/>
	<outline>
		<contour>
			<point x="325" y="0" type="curve" smooth="yes"/>
			<point x="364" y="0"/>
			<point x="359" y="0"/>
			<point x="431" y="0" type="curve"/>
			<point x="442" y="79" type="line"/>
			<point x="367" y="79"/>
			<point x="353" y="79"/>
			<point x="325" y="79" type="curve" smooth="yes"/>
			<point x="234" y="79"/>
			<point x="172" y="151"/>
			<point x="172" y="351" type="curve" smooth="yes"/>
			<point x="172" y="565"/>
			<point x="242" y="621"/>
			<point x="325" y="621" type="curve" smooth="yes"/>
			<point x="352" y="621"/>
			<point x="366" y="621"/>
			<point x="442" y="621" type="curve"/>
			<point x="432" y="700" type="line"/>
			<point x="366" y="700"/>
			<point x="358" y="699"/>
			<point x="325" y="699" type="curve" smooth="yes"/>
			<point x="173" y="699"/>
			<point x="78" y="595"/>
			<point x="78" y="351" type="curve" smooth="yes"/>
			<point x="78" y="87"/>
			<point x="183" y="0"/>
		</contour>
		<contour>
			<point x="422" y="304" type="line"/>
			<point x="612" y="304" type="line" smooth="yes"/>
			<point x="639" y="304"/>
			<point x="658" y="320"/>
			<point x="658" y="343" type="curve" smooth="yes"/>
			<point x="658" y="367"/>
			<point x="639" y="382"/>
			<point x="611" y="382" type="curve" smooth="yes"/>
			<point x="422" y="382" type="line"/>
		</contour>
		<contour>
			<point x="431" y="0" type="curve" smooth="yes"/>
			<point x="672" y="0" type="line" smooth="yes"/>
			<point x="700" y="0"/>
			<point x="718" y="16"/>
			<point x="718" y="39" type="curve" smooth="yes"/>
			<point x="718" y="63"/>
			<point x="700" y="79"/>
			<point x="671" y="79" type="curve" smooth="yes"/>
			<point x="442" y="79" type="line"/>
			<point x="479" y="51" type="line"/>
			<point x="479" y="650" type="line"/>
			<point x="442" y="621" type="line"/>
			<point x="672" y="621" type="line" smooth="yes"/>
			<point x="700" y="621"/>
			<point x="718" y="637"/>
			<point x="718" y="661" type="curve" smooth="yes"/>
			<point x="718" y="684"/>
			<point x="700" y="700"/>
			<point x="671" y="700" type="curve" smooth="yes"/>
			<point x="432" y="700" type="line" smooth="yes"/>
			<point x="404" y="700"/>
			<point x="385" y="679"/>
			<point x="385" y="647" type="curve"/>
			<point x="385" y="51" type="line" smooth="yes"/>
			<point x="385" y="20"/>
			<point x="404" y="0"/>
		</contour>
	</outline>
</glyph>
<glyph name="oe" format="2">
	<advance width="803"/>
	<unicode hex="0153"/>
	<anchor x="793" y="500" name="top"/>
	<outline>
		<contour>
			<point x="267" y="-10" type="curve" smooth="yes"/>
			<point x="339" y="-10"/>
			<point x="388" y="17"/>
			<point x="419" y="80" type="curve"/>
			<point x="422" y="80" type="line"/>
			<point x="461" y="13"/>
			<point x="521" y="-10"/>
			<point x="590" y="-10" type="curve" smooth="yes"/>
			<point x="654" y="-10"/>
			<point x="728" y="18"/>
			<point x="745" y="64" type="curve" smooth="yes"/>
			<point x="764" y="88"/>
			<point x="743" y="116"/>
			<point x="712" y="103" type="curve" smooth="yes"/>
			<point x="672" y="96"/>
			<point x="664" y="63"/>
			<point x="585" y="63" type="curve" smooth="yes"/>
			<point x="503" y="63"/>
			<point x="467" y="128"/>
			<point x="463" y="227" type="curve"/>
			<point x="711" y="227" type="line" smooth="yes"/>
			<point x="738" y="227"/>
			<point x="757" y="245"/>
			<point x="757" y="279" type="curve" smooth="yes"/>
			<point x="757" y="412"/>
			<point x="709" y="510"/>
			<point x="575" y="510" type="curve" smooth="yes"/>
			<point x="504" y="510"/>
			<point x="453" y="483"/>
			<point x="420" y="425" type="curve"/>
			<point x="418" y="425" type="line"/>
			<point x="383" y="488"/>
			<point x="331" y="510"/>
			<point x="267" y="510" type="curve" smooth="yes"/>
			<point x="123" y="510"/>
			<point x="68" y="406"/>
			<point x="68" y="250" type="curve" smooth="yes"/>
			<point x="68" y="63"/>
			<point x="148" y="-10"/>
		</contour>
		<contour>
			<point x="269" y="60" type="curve" smooth="yes"/>
			<point x="189" y="60"/>
			<point x="157" y="136"/>
			<point x="157" y="250" type="curve" smooth="yes"/>
			<point x="157" y="387"/>
			<point x="201" y="440"/>
			<point x="267" y="440" type="curve" smooth="yes"/>
			<point x="344" y="440"/>
			<point x="375" y="364"/>
			<point x="375" y="250" type="curve" smooth="yes"/>
			<point x="375" y="113"/>
			<point x="333" y="60"/>
		</contour>
		<contour>
			<point x="464" y="289" type="line"/>
			<point x="472" y="395"/>
			<point x="518" y="437"/>
			<point x="576" y="437" type="curve" smooth="yes"/>
			<point x="633" y="437"/>
			<point x="665" y="397"/>
			<point x="674" y="321" type="curve" smooth="yes"/>
			<point x="676" y="311"/>
			<point x="677" y="300"/>
			<point x="677" y="289" type="curve"/>
		</contour>
	</outline>
</glyph>
<glyph name="tilde" format="2">
	<advance width="600"/>
	<unicode hex="02DC"/>
	<anchor x="263" y="500" name="_top"/>
	<outline>
		<contour>
			<point x="132" y="570" type="curve" smooth="yes"/>
			<point x="148" y="570"/>
			<point x="163" y="582"/>
			<point x="163" y="606" type="curve" smooth="yes"/>
			<point x="163" y="623"/>
			<point x="171" y="634"/>
			<point x="183" y="634" type="curve" smooth="yes"/>
			<point x="224" y="634"/>
			<point x="299" y="579"/>
			<point x="361" y="579" type="curve" smooth="yes"/>
			<point x="399" y="579"/>
			<point x="427" y="607"/>
			<point x="427" y="670" type="curve" smooth="yes"/>
			<point x="427" y="694"/>
			<point x="412" y="707"/>
			<point x="395" y="707" type="curve" smooth="yes"/>
			<point x="378" y="707"/>
			<point x="364" y="694"/>
			<point x="364" y="672" type="curve" smooth="yes"/>
			<point x="364" y="654"/>
			<point x="358" y="644"/>
			<point x="348" y="644" type="curve" smooth="yes"/>
			<point x="312" y="644"/>
			<point x="233" y="700"/>
			<point x="171" y="700" type="curve" smooth="yes"/>
			<point x="130" y="700"/>
			<point x="100" y="672"/>
			<point x="100" y="606" type="curve" smooth="yes"/>
			<point x="100" y="582"/>
			<point x="115" y="570"/>
		</contour>
	</outline>
</glyph>
<glyph name="bullet.salt" format="2">
	<advance width="544"/>
	<outline>
		<contour>
			<point x="274" y="205" type="curve" smooth="yes"/>
			<point x="329" y="205"/>
			<point x="362" y="238"/>
			<point x="362" y="277" type="curve" smooth="yes"/>
			<point x="362" y="321"/>
			<point x="329" y="387"/>
			<point x="274" y="387" type="curve" smooth="yes"/>
			<point x="220" y="387"/>
			<point x="185" y="323"/>
			<point x="185" y="277" type="curve" smooth="yes"/>
			<point x="185" y="238"/>
			<point x="219" y="205"/>
		</contour>
		<contour>
			<point x="150" y="320" type="curve" smooth="yes"/>
			<point x="175" y="320"/>
			<point x="186" y="338"/>
			<point x="186" y="360" type="curve" smooth="yes"/>
			<point x="186" y="383"/>
			<point x="168" y="406"/>
			<point x="147" y="406" type="curve" smooth="yes"/>
			<point x="125" y="406"/>
			<point x="111" y="388"/>
			<point x="111" y="366" type="curve" smooth="yes"/>
			<point x="111" y="343"/>
			<point x="126" y="320"/>
		</contour>
		<contour>
			<point x="227" y="401" type="curve" smooth="yes"/>
			<point x="248" y="401"/>
			<point x="262" y="415"/>
			<point x="262" y="439" type="curve" smooth="yes"/>
			<point x="262" y="463"/>
			<point x="245" y="494"/>
			<point x="223" y="494" type="curve" smooth="yes"/>
			<point x="194" y="494"/>
			<point x="187" y="468"/>
			<point x="187" y="446" type="curve" smooth="yes"/>
			<point x="187" y="422"/>
			<point x="204" y="401"/>
		</contour>
		<contour>
			<point x="396" y="321" type="curve" smooth="yes"/>
			<point x="419" y="321"/>
			<point x="435" y="343"/>
			<point x="435" y="365" type="curve" smooth="yes"/>
			<point x="435" y="385"/>
			<point x="422" y="406"/>
			<point x="399" y="406" type="curve" smooth="yes"/>
			<point x="377" y="406"/>
			<point x="360" y="384"/>
			<point x="360" y="360" type="curve" smooth="yes"/>
			<point x="360" y="338"/>
			<point x="371" y="321"/>
		</contour>
		<contour>
			<point x="321" y="402" type="curve" smooth="yes"/>
			<point x="344" y="402"/>
			<point x="362" y="422"/>
			<point x="362" y="447" type="curve" smooth="yes"/>
			<point x="362" y="469"/>
			<point x="355" y="494"/>
			<point x="325" y="494" type="curve" smooth="yes"/>
			<point x="303" y="494"/>
			<point x="287" y="463"/>
			<point x="287" y="439" type="curve" smooth="yes"/>
			<point x="287" y="416"/>
			<point x="299" y="402"/>
		</contour>
	</outline>
</glyph>
<glyph name="g.salt" format="2">
	<advance width="529"/>
	<outline>
		<contour>
			<point x="272" y="-210" type="curve" smooth="yes"/>
			<point x="390" y="-210"/>
			<point x="461" y="-131"/>
			<point x="461" y="-12" type="curve" smooth="yes"/>
			<point x="461" y="453" type="line"/>
			<point x="412" y="487"/>
			<point x="347" y="510"/>
			<point x="290" y="510" type="curve" smooth="yes"/>
			<point x="160" y="510"/>
			<point x="76" y="404"/>
			<point x="76" y="246" type="curve" smooth="yes"/>
			<point x="76" y="92"/>
			<point x="145" y="-6"/>
			<point x="248" y="-6" type="curve" smooth="yes"/>
			<point x="308" y="-6"/>
			<point x="351" y="22"/>
			<point x="374" y="70" type="curve"/>
			<point x="376" y="70" type="line"/>
			<point x="376" y="-21" type="line" smooth="yes"/>
			<point x="376" y="-94"/>
			<point x="336" y="-137"/>
			<point x="273" y="-137" type="curve" smooth="yes"/>
			<point x="235" y="-137"/>
			<point x="199" y="-131"/>
			<point x="174" y="-118" type="curve"/>
			<point x="180" y="-111"/>
			<point x="184" y="-102"/>
			<point x="184" y="-91" type="curve" smooth="yes"/>
			<point x="184" y="-61"/>
			<point x="163" y="-42"/>
			<point x="132" y="-42" type="curve" smooth="yes"/>
			<point x="100" y="-42"/>
			<point x="81" y="-68"/>
			<point x="81" y="-98" type="curve" smooth="yes"/>
			<point x="81" y="-169"/>
			<point x="162" y="-210"/>
		</contour>
		<contour>
			<point x="274" y="63" type="curve" smooth="yes"/>
			<point x="206" y="63"/>
			<point x="165" y="137"/>
			<point x="165" y="249" type="curve" smooth="yes"/>
			<point x="165" y="361"/>
			<point x="218" y="437"/>
			<point x="289" y="437" type="curve" smooth="yes"/>
			<point x="323" y="437"/>
			<point x="355" y="428"/>
			<point x="376" y="413" type="curve"/>
			<point x="376" y="185" type="line" smooth="yes"/>
			<point x="376" y="105"/>
			<point x="338" y="63"/>
		</contour>
	</outline>
</glyph>
<glyph name="tilde.case" format="2">
	<advance width="600"/>
	<anchor x="263" y="700" name="_top"/>
	<outline>
		<contour>
			<point x="122" y="763" type="curve" smooth="yes"/>
			<point x="139" y="763"/>
			<point x="153" y="776"/>
			<point x="153" y="799" type="curve" smooth="yes"/>
			<point x="153" y="816"/>
			<point x="162" y="826"/>
			<point x="175" y="826" type="curve" smooth="yes"/>
			<point x="217" y="826"/>
			<point x="304" y="773"/>
			<point x="369" y="773" type="curve" smooth="yes"/>
			<point x="409" y="773"/>
			<point x="437" y="800"/>
			<point x="437" y="863" type="curve" smooth="yes"/>
			<point x="437" y="887"/>
			<point x="422" y="900"/>
			<point x="405" y="900" type="curve" smooth="yes"/>
			<point x="389" y="900"/>
			<point x="375" y="888"/>
			<point x="375" y="865" type="curve" smooth="yes"/>
			<point x="375" y="847"/>
			<point x="368" y="837"/>
			<point x="358" y="837" type="curve" smooth="yes"/>
			<point x="321" y="837"/>
			<point x="230" y="893"/>
			<point x="164" y="893" type="curve" smooth="yes"/>
			<point x="122" y="893"/>
			<point x="91" y="865"/>
			<point x="91" y="799" type="curve" smooth="yes"/>
			<point x="91" y="776"/>
			<point x="105" y="763"/>
		</contour>
	</outline>
</glyph>
